<?xml version="1.0" standalone="no"?>
<!DOCTYPE svg PUBLIC "-//W3C//DTD SVG 20010904//EN"
 "http://www.w3.org/TR/2001/REC-SVG-20010904/DTD/svg10.dtd">
<svg version="1.0" xmlns="http://www.w3.org/2000/svg"
 width="1359.000000pt" height="564.000000pt" viewBox="0 0 1359.000000 564.000000"
 preserveAspectRatio="xMidYMid meet">
<metadata>
Created by potrace 1.16, written by Peter Selinger 2001-2019
</metadata>
<g transform="translate(0.000000,564.000000) scale(0.100000,-0.100000)"
fill="#000000" stroke="none">
<path d="M870 5580 c-454 -3 -826 -6 -827 -8 -34 -35 -33 2 -33 -1686 0 -1091
4 -1644 10 -1657 6 -10 19 -23 29 -29 13 -7 738 -10 2187 -10 l2168 0 21 20
c20 20 20 26 25 1650 3 897 2 1643 -3 1660 -16 62 27 59 -885 62 l-832 3 0
-717 0 -718 -362 0 c-199 0 -359 2 -357 4 2 2 144 6 314 9 179 3 321 9 337 16
45 17 51 42 48 195 -3 220 -1 716 4 874 l4 143 -131 0 c-73 0 -151 2 -174 5
-41 6 -43 7 -43 41 0 39 -30 95 -63 118 -26 18 -127 20 -149 3 -37 -31 -60
-79 -56 -118 l3 -38 -45 -6 c-25 -3 -102 -5 -172 -5 -79 0 -129 -4 -133 -10
-10 -18 -8 -209 4 -288 5 -39 13 -242 16 -450 5 -382 12 -456 44 -472 9 -4 52
-9 96 -10 129 -5 100 -11 -48 -11 l-137 0 0 718 c0 677 -1 718 -17 717 -10 0
-389 -2 -843 -5z m1439 -67 c22 -6 23 -9 17 -56 -3 -28 -11 -54 -18 -59 -18
-11 -120 -10 -137 1 -14 9 -33 106 -23 116 8 7 133 6 161 -2z m19 -443 c-3
-65 -5 -75 -21 -72 -9 2 -16 -2 -15 -9 2 -9 -15 -13 -55 -14 -32 -1 -52 2 -45
7 7 4 10 8 6 8 -3 0 -14 3 -24 7 -13 5 -15 3 -9 -7 5 -8 4 -11 -3 -6 -6 4 -8
14 -5 23 4 11 3 14 -5 9 -8 -5 -12 3 -12 23 0 17 5 31 10 31 6 0 10 5 10 11 0
5 -4 7 -10 4 -6 -3 -10 4 -10 17 0 18 2 20 10 8 8 -13 10 -12 10 3 0 9 6 17
13 17 8 0 7 3 -3 10 -9 6 16 8 73 7 l88 -2 -3 -75z m-628 -1062 c0 -30 1 -30
19 -14 25 22 40 2 17 -23 -15 -16 -15 -19 4 -36 14 -12 17 -22 10 -29 -6 -6
-16 -3 -30 9 -16 15 -20 15 -20 3 0 -20 -85 -22 -104 -2 -12 11 -15 11 -20 -1
-7 -19 -60 -19 -76 0 -11 13 -14 13 -27 0 -17 -18 -37 -19 -64 -5 -11 6 -19 7
-19 2 0 -6 -28 -9 -62 -7 -81 3 -78 2 -78 22 0 14 -3 13 -20 -5 -12 -12 -29
-22 -40 -22 -22 0 -50 25 -50 46 0 8 -10 14 -24 14 -18 0 -25 -7 -30 -31 -11
-54 -31 -28 -34 44 l-3 67 51 0 c27 0 50 -4 50 -10 0 -5 -13 -10 -30 -10 -19
0 -30 -5 -30 -14 0 -20 50 -24 78 -7 21 13 26 12 53 -8 l29 -22 0 36 c0 24 4
35 15 35 12 0 15 -13 15 -55 0 -30 4 -55 9 -55 5 0 7 9 4 19 -6 23 32 65 53
57 9 -3 14 1 14 14 0 11 7 20 15 20 12 0 15 -13 15 -55 l0 -55 33 0 32 0 -25
13 c-31 16 -37 43 -12 56 24 13 62 3 62 -15 0 -10 -8 -13 -27 -9 l-28 5 30
-14 c35 -16 61 -11 45 9 -9 10 -6 16 9 24 20 11 51 5 62 -12 4 -5 18 -2 32 8
20 13 30 14 46 5 19 -9 21 -8 21 13 0 13 3 27 6 30 13 12 24 -4 24 -35z
m-1476 23 c3 -4 3 -11 -1 -14 -3 -4 -6 -37 -7 -74 -1 -62 -3 -68 -23 -71 -23
-3 -31 12 -13 23 6 3 10 21 10 39 0 30 -2 32 -29 28 -23 -3 -30 -10 -35 -34
-11 -53 -31 -27 -34 45 l-3 67 65 0 c36 0 67 -4 70 -9z m136 -46 c0 -30 5 -55
10 -55 6 0 10 25 10 55 0 42 3 55 15 55 12 0 15 -13 15 -55 0 -61 17 -76 22
-19 l3 37 63 0 c66 0 79 -6 82 -38 6 -54 1 -65 -29 -65 -34 0 -63 24 -55 45 3
8 18 18 32 23 25 8 24 9 -15 10 -41 1 -42 0 -45 -36 l-3 -37 -55 -1 c-30 -1
-61 3 -67 9 -20 15 -17 127 2 127 12 0 15 -13 15 -55z m1501 20 c30 -44 39
-44 39 0 0 24 5 35 15 35 11 0 15 -11 16 -37 0 -21 3 -32 6 -25 9 22 40 33 67
22 21 -8 26 -16 26 -43 0 -18 -5 -38 -12 -45 -19 -19 -55 -14 -71 8 l-14 21
-6 -21 c-8 -31 -24 -24 -54 22 l-28 42 -5 -39 c-3 -21 -11 -40 -17 -43 -10 -3
-13 15 -13 67 0 82 13 92 51 36z m519 20 c6 -8 9 -23 5 -34 -3 -11 -2 -29 4
-38 6 -10 11 -13 11 -6 0 6 12 16 28 22 25 10 25 10 3 8 -31 -3 -39 19 -10 26
24 6 59 -8 59 -24 0 -5 13 0 29 12 23 17 32 19 50 10 19 -11 21 -9 21 14 0 16
6 25 15 25 10 0 15 -10 15 -32 0 -30 1 -30 19 -14 25 22 40 2 17 -23 -12 -13
-13 -20 -4 -29 20 -20 27 -14 30 24 3 32 7 37 32 40 19 2 36 -5 52 -22 27 -26
44 -33 24 -9 -10 12 -8 16 11 23 29 11 56 5 63 -14 4 -12 10 -10 26 6 14 14
28 18 45 14 21 -5 25 -3 25 15 0 12 6 21 15 21 10 0 15 -10 15 -30 0 -30 0
-30 24 -15 30 20 42 4 16 -20 -18 -17 -19 -20 -5 -35 10 -11 25 -15 40 -12 29
5 35 -18 10 -38 -14 -12 -20 -7 -16 14 1 5 -6 6 -15 2 -10 -4 -25 1 -35 10
-15 14 -19 14 -19 3 0 -10 -14 -15 -45 -16 -35 -1 -48 3 -59 18 -13 20 -14 20
-19 -1 -6 -24 -58 -28 -79 -7 -10 12 -15 12 -26 0 -7 -7 -22 -13 -33 -13 -10
0 -19 -7 -19 -15 0 -8 -7 -15 -15 -15 -8 0 -15 9 -15 21 0 12 -4 17 -11 14 -5
-4 -19 1 -30 11 -17 16 -19 16 -19 1 0 -10 -7 -17 -15 -17 -8 0 -15 5 -15 12
0 9 -3 9 -12 0 -17 -17 -48 -15 -70 5 -16 15 -18 15 -18 0 0 -12 -8 -15 -37
-13 -20 1 -38 7 -40 13 -3 7 -14 6 -33 -4 -17 -8 -42 -13 -57 -11 -27 3 -28 5
-31 71 l-3 67 44 0 c27 0 49 -6 57 -15z m887 3 c-2 -9 -19 -12 -50 -10 -36 3
-47 0 -47 -11 0 -9 12 -17 30 -19 17 -3 30 -1 30 4 0 4 11 8 25 8 16 0 25 6
25 15 0 8 7 15 15 15 8 0 15 -7 15 -16 0 -13 7 -15 36 -11 39 7 79 -7 68 -24
-3 -5 -14 -7 -25 -4 -28 9 -23 -4 6 -15 53 -20 20 -59 -50 -57 -50 0 -65 11
-66 51 -2 28 -2 27 -8 -9 -7 -49 -34 -56 -39 -9 -3 27 -6 30 -31 26 -23 -3
-30 -11 -35 -34 -11 -53 -31 -27 -34 45 l-3 67 71 0 c53 0 71 -3 67 -12z m799
-13 c4 -10 19 -14 51 -13 33 2 48 -2 58 -15 12 -17 13 -16 17 1 4 15 13 18 43
16 21 -2 42 -9 46 -15 5 -9 12 -8 24 4 19 20 29 21 56 6 24 -12 15 -32 -12
-24 -28 9 -23 -4 6 -15 14 -5 25 -16 25 -25 0 -22 -45 -40 -71 -29 -26 12 -89
-5 -89 -23 0 -7 -7 -13 -15 -13 -11 0 -15 11 -15 37 0 37 0 37 -16 15 -13 -19
-22 -22 -72 -18 -69 5 -62 3 -62 21 0 21 -13 19 -28 -5 -7 -11 -21 -20 -32
-20 -11 0 -20 -7 -20 -15 0 -8 -7 -15 -15 -15 -13 0 -15 12 -13 67 3 63 4 67
28 68 14 2 33 -2 42 -6 13 -7 20 -4 28 11 13 24 28 26 36 5z m-3307 -24 c18
-18 19 -18 24 -2 3 12 13 17 35 15 45 -3 52 -11 52 -60 0 -56 -23 -56 -28 0
-4 48 -26 43 -30 -8 -3 -39 -22 -45 -32 -10 -4 16 -11 18 -35 13 l-30 -7 28
-1 c33 -1 36 -18 3 -27 -32 -8 -66 12 -67 39 0 19 -3 17 -16 -10 -17 -34 -37
-43 -46 -20 -3 6 -12 29 -21 50 -16 36 -16 37 4 37 11 0 20 -6 20 -14 0 -24
21 -30 27 -8 4 15 15 22 42 25 20 2 39 4 44 5 4 1 16 -7 26 -17z m-596 -410
c14 -6 27 -21 31 -36 6 -25 8 -26 20 -10 18 24 60 16 64 -12 3 -19 -1 -23 -23
-23 -16 0 -24 -4 -20 -10 4 -6 15 -8 26 -5 11 4 19 2 19 -4 0 -21 -59 -12 -71
10 l-11 21 -14 -21 c-11 -15 -26 -21 -55 -21 l-39 0 0 54 c0 65 17 78 73 57z"/>
<path d="M4569 5573 c-15 -6 -32 -20 -38 -31 -15 -29 -16 -3283 -1 -3312 6
-11 19 -24 30 -30 26 -14 4344 -14 4371 0 10 6 23 19 29 30 7 12 10 559 10
1656 0 1473 -1 1639 -15 1661 -9 13 -22 26 -28 29 -7 2 -393 5 -860 7 -466 1
-843 1 -837 -1 7 -3 10 -233 10 -668 l0 -664 -500 0 -500 0 0 665 0 664 143 3
c78 2 -292 3 -822 3 -713 0 -971 -3 -992 -12z m1199 -1452 c2 -7 -7 -10 -28
-9 -39 4 -56 -17 -46 -55 8 -35 31 -35 93 -1 33 18 39 24 21 20 -34 -8 -40 19
-6 27 33 9 58 -10 58 -43 0 -27 3 -30 33 -29 l32 1 -27 10 c-33 12 -37 42 -8
58 14 8 26 8 40 0 29 -16 24 -31 -7 -25 l-28 6 28 -16 c34 -20 36 -52 3 -61
-13 -3 -34 -1 -45 6 -16 8 -21 8 -21 -1 0 -7 -12 -9 -37 -5 -50 8 -53 8 -85 0
-44 -10 -78 18 -78 64 0 43 15 68 45 74 25 5 58 -5 63 -21z m1370 17 l32 2 0
-55 c0 -30 4 -55 9 -55 11 0 19 80 9 86 -11 7 0 24 16 24 9 0 13 -19 12 -67
l-1 -67 -33 -3 c-21 -2 -35 2 -38 12 -5 12 -9 12 -30 -1 -17 -11 -35 -14 -59
-10 -46 9 -48 36 -2 33 45 -3 49 13 7 27 -24 7 -36 18 -38 33 -4 27 34 56 63
46 11 -4 35 -6 53 -5z m820 -17 c3 -9 -5 -11 -32 -6 -29 6 -36 4 -36 -9 0 -9
6 -16 13 -16 6 0 24 -6 39 -14 l27 -14 3 41 c3 44 19 53 28 17 3 -12 9 -20 13
-19 4 0 17 -1 28 -4 17 -5 20 -12 17 -48 -4 -54 -26 -64 -30 -13 -4 51 -26 56
-30 8 -3 -36 -28 -63 -28 -30 0 13 -4 13 -29 -2 -32 -18 -80 -9 -89 16 -3 9 6
11 38 6 34 -6 42 -4 38 7 -2 7 -18 17 -35 21 -48 13 -54 61 -9 77 25 10 68 -1
74 -18z m-2738 -11 c18 -44 28 -45 47 -5 20 42 46 43 51 3 3 -27 4 -27 28 -12
22 15 26 15 48 0 14 -9 26 -11 28 -6 5 16 79 15 89 -1 6 -9 11 -11 17 -3 12
18 42 24 63 13 24 -12 15 -32 -12 -24 -28 9 -23 -4 6 -15 56 -21 18 -60 -55
-56 -44 2 -45 3 -48 39 -4 47 -22 49 -22 3 0 -39 -14 -53 -35 -36 -9 7 -15 8
-20 0 -9 -15 -52 -12 -67 4 -11 11 -14 11 -24 -2 -15 -21 -34 -7 -35 26 0 27
0 27 -11 5 -6 -13 -17 -23 -24 -23 -7 0 -16 10 -20 23 -8 21 -8 21 -13 -7 -4
-16 -12 -31 -18 -34 -10 -3 -13 15 -13 67 0 79 17 96 40 41z m1137 11 c3 -12
14 -18 35 -19 16 0 32 -3 35 -6 3 -2 16 0 30 5 19 7 32 6 49 -5 14 -10 24 -12
26 -5 4 12 108 16 126 5 18 -11 16 -96 -3 -96 -11 0 -15 11 -15 40 0 40 -13
53 -24 24 -3 -9 -6 -27 -6 -41 0 -39 -25 -22 -28 20 -4 47 -22 49 -22 3 0 -34
-20 -61 -28 -38 -2 8 -10 8 -28 0 -38 -17 -74 3 -74 43 0 41 -23 33 -30 -11
-7 -48 -30 -51 -30 -5 0 32 -3 36 -17 30 -10 -4 -28 -10 -40 -12 -12 -3 -23
-14 -25 -26 -2 -11 -8 -22 -15 -24 -13 -5 -20 41 -14 100 3 37 3 37 48 37 35
0 46 -4 50 -19z m1861 -7 c7 -12 18 -15 38 -11 30 5 64 -7 64 -24 0 -5 -12 -7
-27 -4 l-28 6 28 -16 c30 -18 36 -51 10 -59 -24 -7 -95 -2 -111 8 -6 4 -12 21
-12 37 0 24 -4 30 -17 27 -13 -2 -19 -14 -21 -41 -5 -57 -27 -41 -27 19 l0 49
33 -3 c24 -3 32 0 32 12 0 21 26 21 38 0z"/>
<path d="M6895 5581 c-6 -5 -43 -16 -83 -25 -73 -16 -93 -16 -200 6 -49 11
-54 10 -77 -12 -14 -13 -69 -47 -123 -74 -89 -47 -99 -55 -122 -101 -22 -44
-25 -64 -27 -175 -1 -69 -4 -200 -8 -291 l-6 -166 47 -7 c88 -12 113 -8 119
17 6 25 0 196 -10 277 -3 30 -18 83 -32 118 -21 51 -25 74 -20 116 9 90 64
173 138 212 29 15 32 14 53 -5 27 -25 42 -27 50 -5 4 9 9 14 12 11 3 -3 3 -11
-1 -16 -3 -6 -8 -48 -10 -94 -3 -45 -7 -110 -11 -144 l-6 -63 36 0 c33 0 36 3
36 28 0 34 35 179 51 215 7 17 20 27 33 27 12 0 47 11 80 25 32 13 64 21 71
19 17 -7 54 -63 101 -155 34 -66 38 -82 39 -151 l1 -77 -23 14 c-12 8 -35 15
-50 15 l-28 0 31 -29 c23 -22 30 -36 28 -58 -2 -15 -5 -48 -8 -73 -3 -25 -5
-51 -5 -58 -1 -7 -5 -11 -9 -8 -13 8 -6 -42 8 -59 12 -15 11 -19 -10 -36 -14
-10 -19 -19 -13 -19 7 0 12 -3 10 -8 -2 -8 6 -12 28 -12 11 0 15 11 15 35 0
20 6 68 14 108 8 40 18 95 22 122 12 87 19 16 19 -192 l0 -193 29 -10 c35 -12
116 -13 134 -2 10 7 12 80 9 348 -4 437 -5 440 -157 505 -85 36 -171 89 -164
101 7 11 0 10 -11 -1z"/>
<path d="M9090 5578 c-10 -4 -25 -17 -34 -30 -15 -20 -16 -172 -16 -1664 0
-1602 0 -1642 19 -1665 l19 -24 2163 -5 c1636 -4 2169 -2 2190 7 15 6 32 20
38 31 8 14 11 512 11 1658 0 1780 3 1676 -53 1689 -12 2 -485 6 -1052 7 -566
2 -937 2 -822 0 l207 -2 0 -555 0 -555 -500 0 -500 0 0 554 c0 361 3 555 10
558 6 2 -366 3 -826 3 -459 0 -843 -3 -854 -7z m1450 -1258 c7 -17 15 -30 19
-30 3 0 15 17 26 37 11 20 25 37 30 37 6 1 13 -19 16 -44 3 -25 7 -37 7 -27 3
27 50 41 78 23 16 -11 24 -12 26 -4 5 14 47 18 71 6 10 -5 17 -20 17 -38 0
-27 3 -30 33 -29 l32 1 -27 10 c-20 7 -28 17 -28 33 0 26 33 39 62 24 24 -13
14 -28 -15 -22 -19 4 -18 2 6 -12 29 -17 34 -34 15 -53 -15 -15 -55 -16 -64
-1 -4 8 -9 8 -17 0 -19 -19 -26 -12 -29 26 -4 49 -28 57 -28 9 0 -35 -17 -57
-29 -38 -4 7 -12 8 -21 2 -26 -16 -58 -11 -74 12 l-16 22 0 -22 c0 -13 -6 -22
-15 -22 -10 0 -15 10 -15 33 l0 32 -20 -25 -20 -25 -20 25 -20 25 0 -32 c0
-23 -5 -33 -15 -33 -12 0 -15 14 -15 68 0 38 3 72 7 75 9 10 29 -10 43 -43z
m550 19 c0 -6 -17 -9 -37 -7 -33 3 -38 0 -47 -25 -8 -21 -6 -31 6 -43 22 -22
68 -11 68 16 0 29 36 49 76 43 27 -4 34 -2 34 11 0 9 7 16 15 16 8 0 15 -7 15
-15 0 -8 7 -15 15 -15 8 0 15 7 15 15 0 8 7 15 15 15 8 0 15 -6 15 -14 0 -17
32 -26 53 -15 22 13 67 -6 68 -28 1 -12 3 -10 8 6 7 26 42 36 74 19 23 -12 25
-98 2 -98 -11 0 -15 11 -15 41 0 52 -24 48 -28 -4 -4 -41 -32 -54 -32 -15 l0
22 -15 -21 c-13 -19 -24 -21 -97 -21 -46 1 -89 5 -95 11 -7 5 -13 24 -14 41
l-1 31 -8 -34 c-10 -40 -27 -53 -60 -46 -31 7 -37 7 -77 -1 -81 -16 -103 113
-23 138 19 6 70 -11 70 -23z m518 -27 c2 -23 7 -40 12 -37 4 3 6 14 3 25 -3
11 -1 20 5 20 6 0 17 3 25 6 9 3 25 -4 36 -15 12 -12 21 -16 21 -11 0 17 43
28 68 19 19 -7 22 -5 22 16 0 16 6 25 15 25 9 0 15 -9 15 -24 0 -19 4 -22 25
-18 29 5 32 -4 10 -28 -14 -15 -14 -18 0 -30 13 -11 15 -9 15 11 0 40 15 53
59 52 30 -1 41 2 41 13 0 7 7 14 15 14 8 0 15 -7 15 -15 0 -8 7 -15 15 -15 19
0 19 -16 0 -24 -17 -6 -10 -35 13 -52 11 -8 12 -13 3 -18 -16 -10 -51 3 -59
22 -5 13 -15 16 -42 11 l-35 -6 33 -2 c17 0 32 -5 32 -11 0 -15 -46 -23 -68
-11 -15 8 -21 8 -25 -2 -3 -9 -10 -7 -24 6 -16 14 -22 15 -26 5 -3 -8 -23 -14
-50 -16 -38 -1 -49 3 -62 20 l-15 22 0 -22 c0 -18 -6 -22 -30 -22 -17 0 -39 9
-50 20 -11 11 -20 16 -20 10 0 -16 -41 -33 -53 -21 -7 7 -5 12 6 17 13 5 17
19 17 61 0 46 3 54 18 51 12 -2 18 -15 20 -46z m-88 -1128 l0 -54 -35 0 c-22
0 -38 6 -45 18 -10 16 -10 16 -20 0 -6 -10 -22 -18 -35 -18 -13 0 -28 8 -34
18 -9 16 -10 16 -16 0 -9 -23 -63 -24 -71 -3 -4 8 -3 26 0 40 8 31 48 34 69 5
l14 -21 6 21 c7 28 53 27 68 -2 l12 -22 8 22 c6 15 17 22 34 22 19 0 25 5 25
21 0 11 5 17 10 14 6 -3 10 -31 10 -61z m-70 -214 l0 -60 -34 0 c-24 0 -35 5
-38 18 -4 15 -12 18 -37 14 -17 -2 -28 -9 -25 -14 4 -5 15 -8 25 -5 11 3 19 1
19 -4 0 -5 -26 -8 -57 -7 -57 3 -58 3 -61 36 -4 35 -3 35 -26 26 -10 -4 -16
-18 -16 -35 0 -16 -4 -29 -10 -29 -5 0 -10 18 -10 40 0 38 2 40 29 40 16 0 32
6 35 13 5 10 7 10 12 0 3 -7 12 -13 20 -13 9 0 12 -5 9 -10 -4 -6 -11 -8 -16
-4 -7 4 -9 -5 -7 -22 4 -35 28 -45 28 -12 0 45 48 66 70 31 10 -17 10 -17 20
0 6 9 19 17 29 17 10 0 21 9 24 20 10 37 17 20 17 -40z"/>
<path d="M11155 5561 c-3 -6 10 -37 30 -68 20 -32 27 -48 16 -35 -23 26 -36
29 -26 5 4 -10 9 -31 12 -48 9 -59 23 -103 38 -115 19 -16 19 -44 -1 -64 -13
-14 -14 -16 0 -16 13 0 15 -35 15 -265 1 -204 -2 -265 -12 -265 -8 0 -8 -3 2
-9 10 -7 12 -20 7 -50 -3 -23 -4 -52 0 -65 5 -21 12 -24 62 -25 31 0 64 -3 73
-6 32 -10 30 14 -5 90 -42 86 -42 87 -18 83 9 -2 16 3 15 10 -5 23 17 12 27
-13 13 -35 16 -31 12 14 -4 39 -4 39 40 47 23 4 49 7 56 5 6 -1 12 3 12 9 0 8
-11 9 -32 4 -60 -13 -73 -10 -76 14 -2 12 -8 22 -14 22 -11 0 -37 29 -38 43 0
5 4 5 10 2 10 -6 8 40 -6 134 -5 31 -4 42 5 37 14 -9 14 4 1 38 -7 21 -5 33
10 59 11 17 20 47 20 65 0 38 16 71 59 126 22 27 28 43 21 50 -7 7 -14 6 -22
-2 -7 -7 -19 -12 -28 -12 -20 0 -55 -37 -64 -66 -4 -12 -16 -30 -28 -40 -21
-19 -21 -19 -14 6 4 14 12 52 18 85 6 33 14 65 18 70 11 13 15 128 6 143 -11
19 -60 14 -84 -8 -27 -25 -70 -27 -68 -3 1 20 -38 31 -49 14z"/>
<path d="M3543 2122 l-813 -2 0 -635 0 -635 -37 1 c-21 1 -31 3 -22 6 22 5 28
53 39 298 9 209 8 272 -9 522 -19 269 -38 312 -155 353 -31 10 -85 33 -119 51
l-62 31 -87 -12 c-47 -6 -107 -8 -133 -4 -43 6 -49 4 -70 -20 -12 -14 -25 -23
-29 -19 -3 3 -6 1 -6 -4 0 -6 -12 -16 -27 -22 -27 -11 -27 -11 7 -6 28 4 32 3
17 -6 -11 -6 -30 -9 -43 -6 -13 2 -24 0 -24 -4 0 -5 -10 -9 -21 -9 -32 0 -84
-36 -98 -67 -8 -16 -17 -105 -22 -208 -6 -99 -17 -220 -25 -270 -17 -97 -24
-153 -48 -375 -16 -153 -15 -159 29 -160 11 0 29 -3 41 -6 18 -5 22 2 38 77
10 46 36 144 58 218 29 101 41 163 46 241 l7 105 5 -100 c3 -55 2 -105 -2
-111 -12 -17 -26 -349 -15 -360 13 -13 122 -35 227 -45 135 -13 237 -5 299 22
l44 19 -7 93 c-3 50 -13 118 -20 150 -8 33 -13 64 -10 71 3 7 1 23 -4 37 -7
16 -4 67 9 154 10 72 19 150 20 175 4 105 21 -120 38 -510 15 -316 9 -284 56
-291 22 -3 -168 -7 -422 -8 l-463 -1 0 635 0 635 -835 0 -836 0 -24 -25 -25
-24 -1 -978 c0 -538 -1 -1003 -2 -1033 -2 -51 0 -55 22 -58 17 -3 22 0 18 11
-7 18 12 48 20 30 8 -21 30 -15 38 10 l8 22 4 -22 c3 -16 11 -23 28 -23 13 0
28 -7 33 -16 8 -14 10 -14 21 0 17 20 45 20 61 1 16 -19 56 -19 64 0 6 17 56
21 56 4 0 -6 -7 -9 -15 -6 -8 4 -17 2 -20 -3 -4 -6 7 -10 23 -10 17 0 32 6 35
14 4 10 23 15 62 15 48 0 54 -3 44 -15 -9 -11 -8 -14 4 -14 8 0 17 7 21 15 7
20 53 19 64 -1 8 -14 10 -14 21 0 17 21 40 20 63 -1 17 -15 18 -15 18 0 0 13
9 17 35 17 24 0 35 -5 35 -15 0 -12 13 -15 56 -15 32 0 53 4 49 10 -3 5 -12 7
-20 3 -8 -3 -15 0 -15 6 0 17 50 13 56 -4 8 -19 24 -19 24 0 0 22 56 20 70 -3
10 -16 10 -16 20 0 6 10 19 18 29 18 10 0 22 10 26 23 7 19 9 17 12 -15 4 -34
7 -38 34 -38 19 0 29 5 29 15 0 8 5 15 10 15 6 0 10 -7 10 -15 0 -8 5 -15 10
-15 6 0 10 7 10 15 0 10 11 15 35 15 24 0 35 -5 35 -15 0 -10 10 -15 30 -15
20 0 30 5 30 15 0 21 66 20 78 -1 8 -14 10 -14 15 -1 8 22 113 22 125 1 8 -13
10 -13 21 0 8 9 26 16 41 16 16 0 31 6 34 13 5 9 7 9 12 0 3 -7 13 -13 22 -13
13 0 12 -3 -4 -15 -19 -14 -18 -14 4 -15 13 0 22 6 22 15 0 8 5 15 10 15 6 0
10 -7 10 -17 0 -15 1 -15 18 0 20 18 62 23 62 8 0 -5 -12 -12 -27 -14 -27 -4
-27 -4 3 -6 20 0 34 5 38 14 7 20 53 19 64 -1 6 -11 21 -14 52 -12 40 3 45 6
54 36 5 17 13 32 17 32 12 0 11 -13 -1 -44 -9 -25 -8 -26 25 -26 31 0 34 3 37
33 2 26 8 33 29 35 33 4 62 -23 54 -49 -4 -11 -2 -19 4 -19 6 0 11 16 11 36 0
21 4 33 10 29 6 -3 10 -19 10 -36 0 -32 11 -37 30 -14 16 19 44 19 60 0 7 -8
26 -14 44 -14 30 2 30 2 4 6 -37 6 -36 23 2 23 16 0 33 -7 38 -16 8 -15 10
-15 15 0 7 18 52 22 63 4 5 -8 0 -9 -14 -6 -12 4 -25 2 -28 -3 -3 -5 8 -9 24
-9 17 0 32 6 36 15 3 8 17 15 31 15 14 0 28 -7 31 -15 4 -9 19 -15 35 -15 19
0 29 5 29 15 0 22 56 20 70 -3 10 -16 10 -16 20 0 13 22 58 24 66 3 4 -8 11
-15 16 -15 6 0 8 6 5 13 -7 18 12 47 20 30 2 -7 11 -13 19 -13 9 0 12 -5 9
-10 -4 -6 -11 -8 -16 -5 -5 4 -9 1 -9 -4 0 -17 30 -13 36 4 8 19 53 19 60 0 4
-8 19 -15 35 -15 18 0 27 4 24 12 -7 18 15 47 22 31 8 -21 30 -15 38 9 l8 23
4 -22 c3 -17 11 -23 29 -23 14 0 27 -7 30 -15 4 -9 19 -15 36 -15 16 0 27 4
23 10 -3 5 -12 7 -20 3 -8 -3 -15 0 -15 6 0 17 50 13 56 -4 4 -8 11 -15 16
-15 6 0 8 6 5 13 -7 18 12 47 20 30 2 -7 12 -13 21 -13 13 0 12 -3 -4 -15 -18
-13 -16 -14 23 -15 41 0 42 1 46 38 3 32 5 34 12 14 4 -12 15 -22 25 -22 10 0
23 -7 31 -16 11 -14 13 -14 21 0 12 21 54 20 68 -2 10 -16 10 -16 20 0 6 10
22 18 35 18 19 0 25 5 25 21 0 33 20 11 21 -24 1 -18 3 -24 6 -14 5 21 23 23
23 2 0 -19 26 -19 34 0 3 8 10 15 15 15 6 0 8 -7 5 -15 -5 -11 1 -15 24 -15
28 0 31 3 35 38 3 32 5 34 12 14 4 -12 14 -22 23 -22 8 0 24 -7 34 -17 17 -15
18 -15 18 0 0 10 5 17 10 17 6 0 10 -7 10 -15 0 -8 7 -15 15 -15 8 0 15 7 15
15 0 8 5 15 10 15 6 0 10 -7 10 -15 0 -8 5 -15 10 -15 6 0 10 7 10 15 0 8 5
15 10 15 6 0 10 -7 10 -15 0 -8 5 -15 10 -15 6 0 10 16 10 36 0 21 4 33 10 29
6 -3 10 -19 10 -36 0 -31 14 -39 24 -14 3 8 17 15 31 15 18 0 25 5 25 20 0 11
5 20 10 20 6 0 10 -16 10 -35 0 -36 13 -47 24 -20 6 17 56 21 56 4 0 -6 -9 -8
-20 -4 -11 4 -20 2 -20 -4 0 -6 20 -11 45 -11 33 0 45 4 45 15 0 8 5 15 10 15
6 0 10 -7 10 -15 0 -19 26 -19 34 0 3 8 10 15 17 15 6 0 9 -7 5 -15 -4 -12 2
-15 27 -14 23 1 26 3 10 6 -13 2 -23 9 -23 14 0 15 50 10 56 -6 8 -19 24 -19
24 0 0 10 10 15 28 15 26 -1 26 -1 8 -15 -19 -15 -19 -15 2 -15 13 0 22 6 22
15 0 8 5 15 10 15 6 0 10 -7 10 -15 0 -8 6 -15 14 -15 8 0 16 7 20 15 3 8 10
15 15 15 6 0 8 -7 5 -15 -4 -9 0 -15 9 -15 9 0 17 8 19 17 2 9 1 477 -2 1039
-5 1125 -1 1045 -65 1062 -17 4 -396 6 -842 4z m-1579 -1382 c36 -13 34 -33
-2 -25 -36 7 -55 -12 -50 -52 3 -25 7 -28 36 -26 42 1 67 20 51 39 -9 11 -6
16 12 23 35 13 63 -2 69 -35 4 -24 10 -29 35 -31 l30 -2 -27 10 c-19 7 -28 18
-28 34 0 26 33 39 62 24 24 -13 14 -28 -15 -22 -19 4 -18 2 6 -12 29 -17 34
-34 15 -53 -15 -15 -55 -16 -64 -1 -4 8 -9 8 -17 0 -14 -14 -60 -14 -75 1 -8
8 -15 8 -26 -1 -23 -19 -67 -9 -89 21 -17 22 -18 33 -11 60 6 19 20 38 34 45
30 15 24 15 54 3z m580 0 c36 -13 32 -31 -5 -28 -19 2 -34 -2 -36 -9 -3 -7 1
-13 9 -13 7 0 25 -7 41 -14 l27 -15 0 40 c0 33 3 40 18 37 13 -2 18 -15 20
-56 3 -58 22 -72 22 -17 0 25 4 35 16 35 12 0 14 -10 12 -47 -3 -45 -5 -48
-33 -50 -18 -2 -35 4 -42 13 -11 15 -13 15 -28 0 -26 -25 -95 -19 -95 9 0 10
10 12 35 8 23 -4 35 -2 35 6 0 6 -16 17 -35 25 -41 18 -46 47 -13 70 27 19 21
18 52 6z m-1100 -37 l18 -37 21 37 c28 50 47 48 48 -5 0 -37 2 -40 11 -21 6
12 19 24 31 27 24 6 57 -9 58 -27 0 -7 4 -3 9 9 6 15 16 20 38 18 43 -3 52
-11 52 -45 0 -26 3 -29 33 -29 l32 0 -25 13 c-31 16 -37 43 -12 56 24 13 62 3
62 -15 0 -10 -8 -13 -27 -9 l-28 5 28 -12 c36 -16 38 -55 3 -64 -13 -3 -33 -1
-44 5 -15 8 -21 8 -24 -1 -8 -23 -28 4 -28 38 0 48 -24 40 -28 -10 -3 -39 -22
-45 -32 -10 -4 16 -11 18 -35 13 l-30 -7 28 -1 c32 -1 36 -17 7 -26 -29 -9
-60 3 -70 28 -8 20 -9 20 -9 -6 -1 -37 -25 -31 -29 7 l-3 27 -20 -23 -19 -23
-20 25 -20 25 0 -33 c0 -22 -4 -32 -12 -30 -8 3 -14 29 -16 71 -3 60 -1 67 16
67 11 0 25 -14 36 -37z m1563 17 c-3 -13 0 -20 9 -20 8 0 13 5 12 12 -2 6 5
14 15 16 10 2 17 -2 17 -11 0 -9 6 -18 13 -21 10 -5 10 -7 0 -12 -19 -9 -16
-54 3 -54 19 0 13 -24 -7 -27 -23 -5 -40 12 -43 43 -5 43 -8 43 -15 1 -9 -55
-26 -45 -27 16 l-1 52 -36 3 c-28 2 -37 -1 -37 -12 0 -8 11 -16 27 -18 39 -4
42 -28 4 -28 -28 0 -31 -3 -31 -31 0 -20 -4 -29 -12 -27 -8 3 -14 29 -16 71
l-3 67 67 0 c61 0 66 -1 61 -20z m-797 -56 c0 -19 5 -34 10 -34 6 0 10 13 10
29 0 29 21 57 33 44 4 -3 7 -17 7 -30 0 -13 4 -22 9 -19 5 3 7 14 4 25 -3 13
2 20 18 24 40 10 59 -9 59 -58 0 -42 -2 -45 -26 -45 -14 0 -34 5 -44 10 -13 7
-21 7 -25 0 -8 -12 -55 -13 -73 -1 -14 9 -19 71 -7 90 11 20 25 1 25 -35z"/>
<path d="M4541 2094 c-21 -27 -21 -30 -21 -1060 l0 -1034 505 0 c498 0 505 0
505 20 0 17 7 20 43 20 30 0 49 -6 61 -19 15 -17 36 -18 276 -19 143 0 260 4
260 9 0 5 11 15 23 24 19 12 30 13 55 4 43 -15 41 -33 -2 -25 -20 4 -37 2 -41
-4 -4 -6 11 -10 39 -10 34 0 46 4 46 15 0 8 7 15 15 15 8 0 15 -6 15 -14 0
-22 117 -19 130 3 9 15 11 14 24 -2 7 -9 21 -17 31 -17 13 0 15 3 6 13 -12 15
-5 27 17 27 9 0 13 -7 9 -18 -4 -18 4 -19 129 -20 106 0 134 2 138 14 8 22 52
35 81 24 35 -13 32 -33 -4 -25 -17 3 -32 2 -36 -4 -4 -7 8 -11 34 -11 34 0 41
3 41 20 0 11 7 20 15 20 8 0 15 -8 15 -18 0 -16 11 -18 91 -20 75 -1 89 1 80
12 -12 14 -5 26 17 26 9 0 13 -7 10 -18 -5 -17 3 -19 78 -20 78 -2 84 -1 84
18 0 17 7 20 44 20 32 0 49 -5 58 -19 12 -16 29 -18 181 -19 158 0 167 1 167
19 0 12 7 19 20 19 13 0 20 -7 20 -19 0 -17 7 -19 56 -19 37 0 57 5 61 14 7
19 33 18 33 -1 0 -13 63 -15 510 -15 l510 0 0 1035 0 1036 -25 24 -24 25 -841
0 -840 0 0 -865 0 -865 -500 0 -500 0 0 865 0 865 -839 0 -840 0 -20 -26z
m3277 -1834 c3 -9 -4 -10 -25 -6 -37 8 -56 -11 -51 -51 2 -22 9 -29 29 -31 18
-2 26 2 26 12 0 9 -9 16 -19 16 -10 0 -18 5 -18 10 0 6 17 10 38 10 20 0 46 7
56 15 22 17 54 11 73 -14 10 -14 12 -10 13 22 0 26 4 37 15 37 12 0 15 -13 15
-55 0 -30 4 -55 9 -55 5 0 7 9 4 19 -6 23 32 65 53 57 9 -3 14 1 14 14 0 11 7
20 15 20 12 0 15 -14 15 -68 l0 -69 -66 0 c-58 -1 -67 2 -72 19 -4 19 -5 19
-24 -2 -22 -23 -51 -26 -70 -6 -12 11 -17 11 -33 0 -28 -21 -63 -17 -90 11
-56 55 -4 139 69 115 11 -4 22 -13 24 -20z m566 20 c36 -13 32 -31 -5 -28 -19
2 -34 -2 -36 -9 -3 -7 1 -13 9 -13 7 0 25 -7 41 -14 25 -14 27 -13 27 6 0 15
5 19 20 15 12 -3 20 0 20 8 0 7 -7 12 -16 11 -9 0 -19 5 -21 12 -4 10 5 13 33
10 l39 -3 3 -50 c2 -27 8 -53 14 -56 14 -9 1 -29 -18 -29 -8 0 -17 7 -20 15
-6 14 -8 13 -20 -2 -13 -16 -15 -17 -27 -2 -10 14 -14 14 -25 3 -22 -24 -92
-15 -92 11 0 10 10 12 35 8 23 -4 35 -2 35 6 0 6 -16 17 -35 25 -41 18 -46 47
-13 70 27 19 21 18 52 6z m-3454 -18 c0 -11 8 -18 22 -19 28 -3 39 -21 36 -63
-4 -50 -32 -48 -36 3 -4 47 -22 49 -22 3 0 -41 -18 -56 -37 -31 -7 11 -13 14
-13 7 0 -17 -45 -25 -69 -12 -21 11 -29 53 -13 76 14 20 45 25 68 9 23 -15 24
-15 24 15 0 23 4 30 20 30 13 0 20 -7 20 -18z m600 -2 c0 -13 7 -20 20 -20 11
0 20 -6 20 -14 0 -24 21 -30 27 -8 7 26 33 37 33 14 0 -29 -44 -122 -59 -122
-8 0 -11 7 -8 20 6 22 -13 80 -25 80 -4 0 -8 -15 -8 -33 0 -32 -2 -34 -35 -35
-27 -1 -39 4 -51 23 -9 14 -13 32 -10 41 4 10 1 14 -6 12 -7 -3 -15 -20 -18
-38 -8 -51 -27 -48 -32 5 -4 54 5 66 41 55 15 -4 35 -3 44 2 10 5 22 6 27 3 6
-3 10 3 10 14 0 12 7 21 15 21 8 0 15 -9 15 -20z m1000 -35 c0 -54 0 -55 30
-55 24 0 30 4 30 23 0 12 4 27 8 33 12 20 47 25 67 10 16 -11 23 -11 40 -1 28
18 67 12 75 -10 6 -17 8 -17 16 -3 15 27 51 31 73 9 18 -18 20 -18 24 -2 5 22
67 20 81 -2 9 -14 11 -14 21 -1 6 8 20 16 33 17 14 1 22 8 22 20 0 31 34 16
41 -18 4 -17 7 -25 8 -18 2 18 38 26 61 13 25 -13 16 -33 -11 -25 -28 9 -23
-4 6 -15 27 -10 33 -34 13 -47 -7 -4 -44 -8 -83 -9 -51 -2 -75 2 -87 14 -16
14 -18 14 -18 -2 0 -34 -25 -9 -28 28 -4 48 -26 43 -30 -8 -3 -39 -22 -45 -32
-10 -4 16 -11 18 -40 13 l-35 -6 33 -2 c22 -1 32 -5 30 -13 -7 -20 -46 -21
-74 -4 -23 16 -24 16 -24 -9 0 -26 -29 -41 -66 -33 -22 4 -31 28 -10 28 13 0
12 4 -4 20 -13 13 -32 19 -52 18 l-33 -1 33 -4 c35 -5 43 -19 15 -26 -10 -3
-49 -4 -88 -3 l-70 1 -3 68 c-2 55 0 67 13 67 12 0 15 -12 15 -55z m-574 -1
c10 -12 12 -12 16 4 5 17 21 19 126 13 6 -1 12 -8 12 -16 0 -13 6 -11 29 6 28
21 31 21 55 6 19 -13 25 -13 29 -3 5 12 56 14 76 1 16 -9 14 -98 -1 -93 -7 3
-14 21 -16 42 -4 48 -26 43 -30 -7 -3 -37 -14 -47 -28 -26 -4 8 -9 8 -17 0
-16 -16 -52 -13 -67 4 -11 14 -14 13 -25 -1 -17 -24 -35 -8 -35 32 0 46 -18
44 -22 -3 -4 -50 -26 -55 -30 -6 -4 49 -22 49 -26 1 -3 -41 -21 -51 -29 -18
l-6 21 -14 -21 c-16 -22 -52 -27 -71 -8 -18 18 -15 75 6 87 20 12 52 5 68 -15z
m1491 0 c3 -9 9 -8 23 6 12 12 30 18 47 16 27 -3 28 -5 31 -64 3 -58 2 -62
-22 -68 -13 -3 -32 -4 -42 -2 -21 4 -30 25 -12 30 10 2 9 7 -4 21 -17 16 -18
16 -18 -3 0 -16 -7 -20 -34 -20 -42 0 -65 24 -49 50 9 13 9 20 1 28 -8 8 -5
14 12 20 29 11 60 4 67 -14z m1103 -18 c0 -6 11 2 23 18 16 20 26 25 31 18 5
-9 13 -9 27 -1 16 8 26 7 44 -5 18 -12 24 -13 28 -2 3 8 16 11 36 8 31 -4 44
-22 16 -22 -10 0 -15 -10 -15 -34 0 -37 -15 -55 -32 -38 -7 7 -16 7 -28 0 -28
-18 -69 -2 -77 30 l-6 27 -14 -33 c-17 -41 -32 -37 -56 12 -22 45 -15 84 9 52
8 -11 14 -25 14 -30z"/>
<path d="M9065 2095 l-25 -24 0 -1036 0 -1035 2220 0 2220 0 2 488 c2 268 1
736 -2 1040 l-5 554 -24 19 c-22 18 -51 19 -857 19 l-834 0 0 -260 0 -260
-500 0 -500 0 0 260 0 260 -835 0 -836 0 -24 -25z m1160 -607 c36 -16 31 -30
-10 -22 -47 8 -48 -19 -2 -33 28 -8 37 -7 57 9 25 20 57 16 77 -11 10 -14 12
-10 13 22 0 26 4 37 15 37 12 0 15 -13 15 -55 0 -30 5 -55 10 -55 6 0 10 16
10 35 0 24 5 35 15 35 8 0 15 -8 15 -17 0 -16 1 -16 13 1 7 9 22 18 34 19 12
0 24 10 27 20 2 11 11 17 18 15 9 -3 13 -25 13 -69 l0 -63 -34 -3 c-20 -2 -41
3 -51 12 -15 13 -18 14 -23 2 -3 -8 -18 -14 -38 -13 -27 1 -34 6 -39 26 -6 25
-7 25 -14 3 -4 -12 -16 -25 -27 -28 -22 -7 -59 2 -59 15 0 5 -13 2 -29 -8 -32
-18 -80 -9 -89 16 -3 9 6 11 38 6 34 -6 42 -4 38 7 -2 7 -18 17 -35 21 -60 16
-52 67 14 87 1 1 14 -4 28 -11z m469 2 c35 -13 34 -33 -1 -26 -16 3 -33 3 -39
-2 -18 -12 -24 -42 -14 -63 13 -22 50 -26 50 -4 0 8 -7 15 -15 15 -8 0 -15 5
-15 10 0 15 60 12 61 -2 0 -7 5 -3 11 9 13 28 40 34 72 17 25 -12 26 -12 26
17 0 24 4 30 18 27 13 -2 18 -17 23 -58 3 -30 6 -43 7 -28 2 29 43 65 62 53 6
-3 10 3 10 14 0 12 7 21 15 21 12 0 15 -14 15 -69 l0 -69 -65 2 c-44 1 -69 6
-75 15 -7 12 -11 12 -25 -2 -28 -28 -74 -16 -88 23 -4 10 -6 8 -6 -6 -2 -61
-121 -29 -121 32 0 43 19 67 67 83 1 1 13 -3 27 -9z m452 -27 c6 -13 14 -20
17 -16 4 3 25 6 47 5 30 -1 40 2 40 13 0 8 7 15 15 15 8 0 15 -7 15 -15 0 -8
9 -15 19 -15 14 0 18 5 14 20 -4 14 0 20 12 20 12 0 16 -6 12 -20 -3 -11 -1
-20 4 -20 5 0 9 7 9 15 0 8 7 15 15 15 8 0 15 -6 15 -14 0 -18 28 -25 58 -14
39 14 61 -6 59 -52 -1 -46 -10 -51 -77 -47 -59 4 -70 11 -71 50 -2 30 -2 30
-8 -7 -5 -34 -10 -39 -36 -42 -38 -4 -55 11 -55 49 0 35 -10 31 -14 -5 -4 -36
-14 -48 -42 -48 -17 0 -30 9 -42 30 -13 23 -22 29 -37 25 -11 -2 -26 -5 -32
-5 -7 0 -13 -12 -13 -26 0 -16 -5 -24 -12 -22 -8 3 -14 29 -16 72 l-3 67 48
-3 c38 -2 50 -8 59 -25z m593 10 c-4 -40 0 -44 24 -30 12 8 38 13 57 11 37 -3
76 -4 123 -3 16 1 34 -7 41 -16 12 -17 13 -17 18 2 5 17 12 20 39 17 19 -2 41
-13 49 -25 13 -17 20 -18 40 -9 23 10 23 10 3 6 -31 -6 -40 12 -11 23 25 9 49
4 60 -13 5 -7 8 -7 8 2 0 20 28 13 35 -9 7 -21 8 -21 29 6 15 19 25 25 30 17
5 -9 13 -9 27 -1 16 8 26 7 45 -6 33 -21 27 -48 -11 -56 l-30 -7 34 -1 c29 -1
32 -3 21 -16 -25 -30 -89 -6 -91 34 0 9 -7 1 -15 -17 -18 -40 -33 -37 -56 9
l-16 34 -4 -35 c-3 -31 -7 -35 -34 -38 -19 -2 -38 3 -47 12 -13 14 -16 14 -27
1 -7 -8 -21 -15 -31 -15 -11 0 -19 -7 -19 -15 0 -8 -7 -15 -15 -15 -11 0 -15
11 -15 37 l0 37 -20 -22 c-36 -39 -90 -18 -90 34 0 38 -18 28 -22 -13 -3 -36
-4 -37 -50 -39 -38 -2 -50 1 -61 17 -14 20 -15 20 -20 -2 -11 -42 -27 -7 -26
57 1 48 5 64 16 64 8 0 13 -8 12 -17z"/>
<path d="M6765 1886 c35 -15 59 -41 51 -54 -3 -5 6 -20 21 -33 l26 -24 -18 30
-17 30 21 -25 c13 -15 20 -34 17 -48 -2 -17 0 -20 7 -13 6 6 17 11 24 11 11 0
10 -7 -2 -31 -9 -17 -14 -36 -11 -42 3 -9 5 -8 5 1 1 9 8 8 26 -4 14 -9 28
-14 32 -10 3 3 0 6 -7 6 -10 0 -9 5 3 18 10 10 15 21 12 24 -3 3 0 8 7 11 17
6 62 -29 48 -38 -13 -8 -32 4 -25 15 3 5 1 11 -4 14 -5 4 -8 -2 -6 -11 1 -10
-4 -28 -11 -40 -13 -20 -13 -23 1 -23 24 0 75 29 75 43 0 8 4 7 11 -3 9 -12
10 -11 6 8 -3 15 0 22 9 22 8 0 14 4 14 10 0 6 -10 5 -25 -2 -20 -9 -28 -8
-43 5 -10 10 -23 17 -29 17 -6 0 -20 16 -32 35 -18 31 -25 35 -60 35 -33 0
-44 5 -58 28 -24 38 -43 52 -72 52 -26 -1 -26 -1 4 -14z"/>
<path d="M7060 1505 c0 -14 -4 -25 -10 -25 -5 0 -10 7 -10 15 0 16 -12 20 -23
8 -4 -3 0 -11 9 -17 14 -10 13 -14 -5 -30 -19 -17 -19 -21 -5 -50 l15 -31 -20
23 c-23 27 -28 27 -34 5 -4 -15 -5 -14 -6 3 0 11 5 26 12 33 10 10 9 11 -5 6
-10 -4 -18 -11 -18 -17 0 -5 -3 -7 -7 -5 -5 3 -8 -5 -8 -18 0 -13 4 -21 8 -18
5 3 7 -2 5 -9 -2 -8 12 -27 30 -42 17 -15 32 -33 32 -39 0 -6 -11 0 -25 13
-17 16 -25 19 -25 9 0 -19 20 -49 20 -30 0 11 3 11 17 0 9 -8 17 -12 19 -9 1
3 6 1 11 -4 4 -5 4 -7 -2 -4 -5 3 -19 2 -30 -3 -15 -6 -10 -8 18 -6 21 0 41 5
43 9 3 4 0 8 -5 8 -6 0 -11 9 -11 20 0 17 3 19 19 8 38 -24 32 -45 -15 -57
-42 -11 -44 -13 -38 -39 4 -15 7 -28 8 -29 1 -1 21 3 45 9 41 10 45 9 62 -13
20 -26 36 -21 21 8 -5 10 -7 24 -4 32 2 8 0 11 -5 8 -8 -5 -10 16 -4 42 1 2 8
-2 16 -9 9 -7 14 -19 11 -27 -3 -8 2 -13 15 -13 19 0 19 1 4 16 -9 9 -14 23
-10 32 4 12 -1 13 -25 9 -17 -4 -30 -2 -30 3 0 6 9 10 19 10 11 0 23 5 26 11
11 16 -14 67 -35 72 -17 4 -19 12 -13 56 5 45 3 55 -17 76 -30 32 -40 32 -40
0z"/>
<path d="M7068 1156 c-3 -15 -1 -24 6 -23 6 1 12 -15 14 -36 2 -24 7 -35 14
-31 8 5 9 -6 5 -34 -3 -27 -2 -40 5 -36 6 4 8 -2 3 -16 -4 -12 -7 -38 -7 -59
0 -20 -5 -42 -11 -49 -8 -10 -7 -16 2 -21 10 -7 9 -15 -4 -41 -9 -18 -12 -29
-6 -26 17 11 13 -11 -6 -41 -10 -15 -12 -24 -5 -20 20 13 14 -20 -6 -35 -10
-7 -22 -20 -27 -28 -8 -13 -7 -13 8 -1 25 20 21 2 -5 -27 -13 -14 -17 -22 -10
-18 6 4 12 3 12 -3 0 -5 -16 -19 -35 -31 -37 -23 -49 -38 -16 -20 28 14 36 12
21 -5 -7 -8 -21 -15 -31 -15 -10 0 -21 -4 -24 -10 -3 -5 1 -10 10 -10 9 0 13
-5 9 -11 -3 -6 -15 -9 -25 -6 -11 3 -19 1 -19 -4 0 -5 8 -9 18 -9 13 0 14 -2
4 -9 -8 -4 -13 -11 -13 -15 3 -22 0 -36 -9 -36 -7 0 -7 6 0 20 8 15 8 20 -2
21 -7 0 -22 2 -33 4 l-20 4 20 -16 c19 -15 19 -15 -10 -7 -16 4 -47 8 -67 8
-21 -1 -38 4 -38 9 0 5 -9 7 -20 4 -11 -3 -20 0 -20 6 0 7 -5 4 -11 -6 -8 -14
-8 -22 1 -30 8 -9 9 -7 4 8 -7 18 -6 18 9 6 9 -7 17 -10 17 -6 0 4 7 2 15 -5
8 -6 18 -9 23 -7 4 3 14 2 22 -4 12 -7 10 -9 -7 -9 -13 0 -23 -4 -23 -9 0 -5
10 -7 23 -4 18 4 20 3 7 -7 -12 -10 -12 -11 5 -5 11 4 28 7 38 7 10 0 21 6 24
14 3 8 9 14 14 14 6 0 5 -9 -1 -20 -7 -14 -7 -20 0 -20 5 0 10 5 10 10 0 6 9
10 20 10 14 0 22 11 30 40 6 22 15 40 20 40 6 0 6 -9 0 -24 -6 -17 -5 -26 3
-30 7 -2 4 -5 -6 -5 -10 -1 -15 -6 -12 -11 5 -8 11 -7 21 1 7 6 11 16 8 21 -3
5 2 8 11 6 10 -2 20 3 23 11 3 9 -1 11 -15 7 -17 -5 -20 -2 -18 24 1 17 7 36
14 43 9 9 10 4 5 -18 -5 -27 -3 -30 20 -30 15 0 26 6 26 13 0 8 -7 11 -18 8
-15 -5 -17 -1 -14 34 2 22 8 43 13 46 5 3 9 14 9 24 0 10 5 22 11 26 7 4 9 0
5 -14 -4 -12 -3 -30 3 -40 7 -13 7 -22 0 -29 -6 -6 -4 -15 7 -24 16 -13 17
-11 11 23 -7 45 2 56 24 27 16 -21 16 -21 11 10 -4 27 -7 29 -24 20 -15 -8
-19 -7 -17 3 2 7 -1 24 -5 37 -5 14 -4 27 3 34 8 8 11 4 11 -16 0 -15 4 -27
10 -27 5 0 7 7 3 15 -7 20 24 55 43 48 8 -3 12 -9 9 -13 -3 -5 3 -7 12 -6 9 2
18 8 19 15 2 9 1 9 -3 0 -3 -7 -13 2 -24 22 -14 28 -19 31 -24 17 -10 -26 -24
-22 -17 4 4 15 2 19 -7 14 -8 -5 -10 -19 -6 -38 5 -21 4 -28 -4 -24 -14 9 -15
53 -1 61 5 3 7 20 4 38 l-5 32 17 -34 c23 -43 30 -25 10 24 -9 21 -15 49 -15
64 1 25 2 25 8 -4 l6 -30 14 33 c7 17 18 32 23 32 5 0 3 -10 -3 -22 -9 -17 -9
-24 3 -32 8 -6 18 -22 23 -35 5 -18 9 -21 16 -10 13 20 11 37 -2 19 -9 -12
-10 -11 -6 8 3 12 2 22 -3 22 -14 0 -20 29 -11 53 10 26 -8 80 -31 93 -8 5
-18 18 -22 29 -6 17 -4 16 21 -5 15 -14 29 -28 31 -32 2 -5 8 -8 14 -8 6 0 4
8 -4 18 -9 9 -19 27 -22 40 -4 12 -12 22 -17 22 -5 0 -9 4 -9 10 0 5 6 7 13 4
9 -3 13 6 14 31 1 41 -14 47 -23 9 -4 -14 -9 -22 -13 -17 -12 16 -33 14 -29
-4 2 -10 9 -17 14 -16 6 1 11 -4 11 -12 0 -11 -5 -11 -19 -4 -12 6 -18 19 -16
32 1 12 -5 32 -14 45 l-16 23 -4 -25z"/>
</g>
</svg>
